<?xml version="1.0" encoding="utf-8"?>
<!-- Generator: Adobe Illustrator 24.0.2, SVG Export Plug-In . SVG Version: 6.00 Build 0)  -->
<svg version="1.1" id="圖層_1" xmlns="http://www.w3.org/2000/svg" xmlns:xlink="http://www.w3.org/1999/xlink" x="0px" y="0px"
	 viewBox="0 0 50 50" style="enable-background:new 0 0 50 50;" xml:space="preserve">
<style type="text/css">
	.st0{fill:#12449A;}
	.st1{fill:#FFFFFF;}
	.st2{fill:#595757;}
</style>
<path class="st0" d="M49,24.8c0,13.3-10.8,24.1-24.1,24.1c-13.3,0-24.1-10.8-24.1-24.1c0-13.3,10.8-24.1,24.1-24.1
	C38.2,0.7,49,11.5,49,24.8z"/>
<path class="st1" d="M36,33.8"/>
<polygon class="st1" points="32.4,12.9 24.3,20.6 16.2,12.9 3.8,25.3 14.3,35.8 14.3,44.4 21.6,44.4 21.6,33.2 14.1,25.7 13.5,25.1 
	16,23 24.3,31.2 24.3,31.3 24.3,31.3 24.3,31.3 24.3,31.2 32.6,23 34.9,25.3 34.5,25.7 27,33.2 27,44.4 34.3,44.4 34.3,35.8 
	44.8,25.3 "/>
<path class="st1" d="M24.5,14.9c3.1,0,5.5-2.5,5.5-5.5c0-3.1-2.5-5.5-5.5-5.5c-3.1,0-5.5,2.5-5.5,5.5C19,12.4,21.5,14.9,24.5,14.9z"
	/>
<path class="st2" d="M36.1,33.4"/>
</svg>
