<?xml version="1.0" encoding="utf-8"?>
<!-- Generator: Adobe Illustrator 24.0.2, SVG Export Plug-In . SVG Version: 6.00 Build 0)  -->
<svg version="1.1" id="圖層_1" xmlns="http://www.w3.org/2000/svg" xmlns:xlink="http://www.w3.org/1999/xlink" x="0px" y="0px"
	 viewBox="0 0 25 22" style="enable-background:new 0 0 25 22;" xml:space="preserve">
<style type="text/css">
	.st0{fill:#1877F2;}
</style>
<path class="st0" d="M22.2,0.1H2.7C2,0.1,1.5,0.6,1.5,1.3v19.5C1.5,21.5,2,22,2.7,22h10.5v-8.5h-2.8v-3.3h2.8V7.8
	c0-2.8,1.7-4.4,4.3-4.4c1.2,0,2.3,0.1,2.6,0.1v3l-1.7,0c-1.4,0-1.6,0.7-1.6,1.6v2.1h3.3l-0.4,3.3h-2.9V22h5.6c0.7,0,1.2-0.5,1.2-1.2
	V1.3C23.4,0.6,22.9,0.1,22.2,0.1z"/>
</svg>
